<svg width="512" height="512" viewBox="0 0 512 512" fill="none" xmlns="http://www.w3.org/2000/svg">
<g clip-path="url(#clip0_568_168)">
<path d="M395.648 272.277C396.16 232.383 417.067 195.541 451.051 174.655C429.526 143.893 394.731 125.098 357.206 123.925C317.718 119.786 279.446 147.541 259.328 147.541C238.827 147.541 207.851 124.33 174.486 125.013C130.603 126.442 90.6669 150.783 69.3122 189.162C23.8509 267.882 57.7495 383.594 101.312 447.231C123.115 478.399 148.566 513.194 181.91 511.978C214.528 510.634 226.71 491.178 266.07 491.178C305.067 491.178 316.502 511.978 350.507 511.189C385.494 510.613 407.552 479.893 428.587 448.426C444.246 426.218 456.299 401.685 464.278 375.722C422.72 358.143 395.691 317.418 395.648 272.277Z" fill="white"/>
<path d="M331.414 82.0693C350.486 59.1573 359.894 29.7173 357.611 0C328.47 3.072 301.526 17.0027 282.198 39.0187C263.104 60.7573 253.419 89.1733 255.296 118.059C284.843 118.357 312.896 105.088 331.414 82.0693Z" fill="white"/>
</g>
<defs>
<clipPath id="clip0_568_168">
<rect width="512" height="512" fill="white"/>
</clipPath>
</defs>
</svg>
