<?xml version="1.0"?>
<svg xmlns="http://www.w3.org/2000/svg" xmlns:xlink="http://www.w3.org/1999/xlink" version="1.1" width="512" height="512" x="0" y="0" viewBox="0 0 24 24" style="enable-background:new 0 0 512 512" xml:space="preserve"><g><path xmlns="http://www.w3.org/2000/svg" d="M12,0A11.972,11.972,0,0,0,4,3.073V1A1,1,0,0,0,2,1V4A3,3,0,0,0,5,7H8A1,1,0,0,0,8,5H5a.854.854,0,0,1-.1-.021A9.987,9.987,0,1,1,2,12a1,1,0,0,0-2,0A12,12,0,1,0,12,0Z" fill="#ffffff" data-original="#000000"/><path xmlns="http://www.w3.org/2000/svg" d="M12,6a1,1,0,0,0-1,1v5a1,1,0,0,0,.293.707l3,3a1,1,0,0,0,1.414-1.414L13,11.586V7A1,1,0,0,0,12,6Z" fill="#ffffff" data-original="#000000"/></g></svg>
