<svg width="50" height="50" viewBox="0 0 50 50" fill="none" xmlns="http://www.w3.org/2000/svg">
<rect width="50" height="50" rx="25" fill="white"/>
<rect x="0.5" y="0.5" width="49" height="49" rx="24.5" stroke="black" stroke-opacity="0.5"/>
<path d="M26.773 27.777V25.297C28.292 24.832 29.594 24.057 30.71 22.972C31.826 21.887 32.384 20.585 32.384 19.066C32.384 17.144 31.671 15.625 30.214 14.54C28.788 13.424 27.052 12.866 25.037 12.866C22.619 12.866 20.542 13.486 18.775 14.695V18.601C20.697 17.454 22.557 16.865 24.324 16.865C26.401 16.865 27.889 17.702 27.889 19.345C27.889 20.244 27.362 21.019 26.277 21.732C25.192 22.445 23.983 22.91 22.619 23.189V27.777H26.773ZM24.789 35.341C26.277 35.341 27.486 34.132 27.486 32.613C27.486 31.125 26.277 29.947 24.789 29.947C23.27 29.947 22.092 31.125 22.092 32.613C22.092 34.132 23.27 35.341 24.789 35.341Z" fill="black" fill-opacity="0.5"/>
</svg>
